<svg id="Layer_1" data-name="Layer 1" xmlns="http://www.w3.org/2000/svg" viewBox="0 0 2048 2048"><defs><style>.cls-1{fill:#ccc;}.cls-2{font-size:1200px;font-family:NotoSerifCJKkr-Black-KSCpc-EUC-H, Noto Serif CJK KR;}</style></defs><path class="cls-1" d="M1024,2038c-136.89,0-269.69-26.81-394.69-79.68A1017.56,1017.56,0,0,1,89.68,1418.69C36.81,1293.69,10,1160.89,10,1024S36.81,754.31,89.68,629.31A1017.56,1017.56,0,0,1,629.31,89.68C754.31,36.81,887.11,10,1024,10s269.69,26.81,394.69,79.68a1017.56,1017.56,0,0,1,539.63,539.63c52.87,125,79.68,257.8,79.68,394.69s-26.81,269.69-79.68,394.69a1017.56,1017.56,0,0,1-539.63,539.63c-125,52.87-257.8,79.68-394.69,79.68Z"/><path d="M1024,20a1011.13,1011.13,0,0,1,202.36,20.4,998.07,998.07,0,0,1,359,151.06A1007.12,1007.12,0,0,1,1949.11,633.2a999.24,999.24,0,0,1,58.49,188.44,1013.87,1013.87,0,0,1,0,404.72,998.07,998.07,0,0,1-151.06,359,1007.12,1007.12,0,0,1-441.74,363.78,999.24,999.24,0,0,1-188.44,58.49,1013.87,1013.87,0,0,1-404.72,0,998.07,998.07,0,0,1-359-151.06A1007.12,1007.12,0,0,1,98.89,1414.8,999.24,999.24,0,0,1,40.4,1226.36a1013.87,1013.87,0,0,1,0-404.72,998.07,998.07,0,0,1,151.06-359A1007.12,1007.12,0,0,1,633.2,98.89,999.24,999.24,0,0,1,821.64,40.4,1011.13,1011.13,0,0,1,1024,20h0m0-20h0C458.46,0,0,458.46,0,1024H0c0,565.54,458.46,1024,1024,1024h0c565.54,0,1024-458.46,1024-1024h0C2048,458.46,1589.54,0,1024,0Z"/><text class="cls-2" transform="translate(805.13 1495.05)">i</text></svg>