<svg id="Layer_1" data-name="Layer 1" xmlns="http://www.w3.org/2000/svg" viewBox="0 0 2048 2048"><defs><style>.cls-1{fill:#ccc;}.cls-2{fill:none;stroke-width:10px;}.cls-2,.cls-4{stroke:#000;stroke-miterlimit:10;}.cls-3,.cls-4{fill:#fff;}.cls-4{stroke-width:20px;}</style></defs><rect class="cls-1" x="10" y="10" width="2028" height="2028" rx="166.67"/><path d="M1871.33,20A156.68,156.68,0,0,1,2028,176.67V1871.33A156.68,156.68,0,0,1,1871.33,2028H176.67A156.68,156.68,0,0,1,20,1871.33V176.67A156.68,156.68,0,0,1,176.67,20H1871.33m0-20H176.67A176.67,176.67,0,0,0,0,176.67V1871.33A176.67,176.67,0,0,0,176.67,2048H1871.33A176.67,176.67,0,0,0,2048,1871.33V176.67A176.67,176.67,0,0,0,1871.33,0Z"/><path class="cls-2" d="M1840.42,1220.14l-157.52-92.92-157.52-92.93-157.51-92.92-315-185.86L728.91,946.6l-162,95.55-162,95.54-162,95.55-162,95.54,157.52,92.93,157.52,92.93,157.52,92.93,157.52,92.93,315,185.85,323.92-191.09,162-95.55,162-95.55,162-95.54,162-95.55ZM1521,1222.76l-162,95.55-157.52-92.93,162-95.54Z"/><line class="cls-2" x1="868.67" y1="1793.42" x2="1840.43" y2="1220.15"/><line class="cls-2" x1="1682.9" y1="1127.22" x2="1520.95" y2="1222.76"/><polyline class="cls-2" points="1358.99 1318.31 1197.03 1413.86 1035.07 1509.41 873.11 1604.95 711.16 1700.5"/><line class="cls-2" x1="1525.38" y1="1034.29" x2="1363.43" y2="1129.84"/><polyline class="cls-2" points="1201.47 1225.38 1039.51 1320.93 877.55 1416.48 715.6 1512.03 553.64 1607.57"/><line class="cls-2" x1="396.12" y1="1514.64" x2="1367.87" y2="941.37"/><line class="cls-2" x1="238.6" y1="1421.71" x2="1210.35" y2="848.44"/><polyline class="cls-2" points="1835.98 1408.62 1678.46 1315.69 1520.95 1222.76"/><polyline class="cls-2" points="1363.43 1129.84 1205.91 1036.91 1048.39 943.98 890.87 851.06"/><polygon class="cls-2" points="1520.95 1222.76 1358.99 1318.31 1201.47 1225.38 1363.43 1129.84 1520.95 1222.76"/><polyline class="cls-2" points="1674.03 1504.16 1516.51 1411.23 1358.99 1318.31"/><polyline class="cls-2" points="1201.47 1225.38 1043.95 1132.46 886.43 1039.53 728.91 946.6"/><line class="cls-2" x1="566.95" y1="1042.15" x2="1512.07" y2="1599.71"/><line class="cls-2" x1="404.99" y1="1137.69" x2="1350.11" y2="1695.26"/><line class="cls-2" x1="243.03" y1="1233.24" x2="1188.15" y2="1790.8"/><polygon class="cls-3" points="462.79 1286.66 462.79 621.07 1039.21 288.27 1615.63 621.07 1615.63 1286.66 1039.21 1619.45 462.79 1286.66"/><path d="M1039.21,299.82l566.42,327v654l-566.42,327-566.42-327v-654l566.42-327m0-23.1L452.79,615.29v677.14L1039.21,1631l586.42-338.57V615.29L1039.21,276.72Z"/><polyline class="cls-4" points="469.25 625 1039.66 954.03 1606.03 625"/><line class="cls-4" x1="1039.66" y1="954.03" x2="1043.71" y2="1612.09"/></svg>