<svg id="Layer_1" data-name="Layer 1" xmlns="http://www.w3.org/2000/svg" viewBox="0 0 2048 2048"><defs><style>.cls-1{fill:#ccc;}.cls-2{fill:gray;}</style></defs><rect class="cls-1" x="10" y="10" width="2028" height="2028" rx="166.67"/><path d="M1871.33,20A156.68,156.68,0,0,1,2028,176.67V1871.33A156.68,156.68,0,0,1,1871.33,2028H176.67A156.68,156.68,0,0,1,20,1871.33V176.67A156.68,156.68,0,0,1,176.67,20H1871.33m0-20H176.67A176.67,176.67,0,0,0,0,176.67V1871.33A176.67,176.67,0,0,0,176.67,2048H1871.33A176.67,176.67,0,0,0,2048,1871.33V176.67A176.67,176.67,0,0,0,1871.33,0Z" transform="translate(0 0)"/><path class="cls-2" d="M1602.62,1555A134.66,134.66,0,0,1,1473,1456l-41.64-152.56c-19.88-72.82-66.18-119.87-117.95-119.87H757.87c-51.77,0-98.07,47.05-118,119.87L598.28,1456a134.66,134.66,0,0,1-129.62,99H368.82a181.12,181.12,0,0,1-89.09-22.85,185.21,185.21,0,0,1-93.61-141.45,181,181,0,0,1,13.78-90.93L434.08,748.2A183.21,183.21,0,0,1,603,636.4h864.07A183.22,183.22,0,0,1,1636,748.2l234.18,551.57A181.1,181.1,0,0,1,1884,1390.7a185.26,185.26,0,0,1-93.62,141.45,181,181,0,0,1-89.08,22.85Zm-198-586.65c-.92,0-1.86,0-2.78.07-27,1.37-49.25,23.61-50.62,50.63a53.48,53.48,0,0,0,53.39,56.24c.92,0,1.86,0,2.78-.07,27-1.37,49.25-23.61,50.62-50.62a53.48,53.48,0,0,0-53.39-56.25ZM673.43,1068.59h98.25V956.47H885.42V858.22H771.68V745H673.43v113.2H561.84v98.25H673.43ZM1516.58,854c-.92,0-1.85,0-2.78.07-27,1.37-49.25,23.6-50.62,50.62a53.46,53.46,0,0,0,53.4,56.24c.92,0,1.85,0,2.77-.07,27-1.37,49.26-23.6,50.63-50.62a53.46,53.46,0,0,0-53.4-56.24Zm-230-2.44c-.91,0-1.85,0-2.77.07-27,1.37-49.25,23.61-50.62,50.63a53.48,53.48,0,0,0,53.39,56.24c.92,0,1.86,0,2.78-.07,27-1.37,49.25-23.61,50.62-50.63a53.48,53.48,0,0,0-53.4-56.24ZM1404.6,738.32c-.91,0-1.85,0-2.77.07-27,1.37-49.25,23.61-50.62,50.62a53.48,53.48,0,0,0,53.39,56.25c.92,0,1.86,0,2.78-.07,27-1.37,49.25-23.61,50.62-50.63a53.48,53.48,0,0,0-53.4-56.24Z" transform="translate(0 0)"/><path d="M1467.07,642.4a177.48,177.48,0,0,1,163.39,108.14l234.19,551.57a175.16,175.16,0,0,1,13.33,88,179.24,179.24,0,0,1-90.56,136.85,175.17,175.17,0,0,1-86.17,22.09h-98.63a128.36,128.36,0,0,1-123.83-94.56l-41.65-152.56c-20.61-75.5-69.17-124.29-123.73-124.29H757.87c-54.56,0-103.12,48.79-123.74,124.29l-41.64,152.56A128.36,128.36,0,0,1,468.66,1549H368.82a175.12,175.12,0,0,1-86.17-22.09,179.28,179.28,0,0,1-90.57-136.85,175.16,175.16,0,0,1,13.34-88L439.6,750.54A177.51,177.51,0,0,1,603,642.4h864.07M1404.6,851.26c1,0,2.06,0,3.08-.08a59.47,59.47,0,0,0-3.07-118.86h0c-1,0-2,0-3.07.08a59.47,59.47,0,0,0,3.07,118.86m-737.17,1H555.84V962.47H667.43v112.12H777.68V962.47H891.42V852.22H777.68V739H667.43v113.2m619.12,112.23c1,0,2,0,3.07-.08a59.47,59.47,0,0,0-3.07-118.86h0c-1,0-2.06,0-3.08.08a59.47,59.47,0,0,0,3.08,118.86m230,2.43c1,0,2.06,0,3.08-.08A59.46,59.46,0,0,0,1516.58,848h0c-1,0-2.06,0-3.08.07a59.47,59.47,0,0,0,3.08,118.86m-112,114.41c1,0,2.06,0,3.08-.08a59.47,59.47,0,0,0-3.07-118.86h0c-1,0-2,0-3.07.08a59.47,59.47,0,0,0,3.07,118.86m62.47-450.89H603A189.51,189.51,0,0,0,428.56,745.85L194.38,1297.42C141.31,1422.4,233,1561,368.82,1561h99.84a140.37,140.37,0,0,0,135.41-103.4L645.71,1305c19.11-70,63.27-115.45,112.16-115.45h555.54c48.89,0,93,45.46,112.16,115.45l41.64,152.56A140.37,140.37,0,0,0,1602.62,1561h98.63c135.78,0,227.51-138.6,174.44-263.58L1641.51,745.85A189.51,189.51,0,0,0,1467.07,630.4Zm-62.46,208.86a47.47,47.47,0,0,1-2.48-94.88c.83,0,1.66-.06,2.47-.06a47.47,47.47,0,0,1,2.47,94.87c-.82,0-1.65.07-2.46.07ZM567.84,950.47V864.22H679.43V751h86.25v113.2H879.42v86.25H765.68v112.12H679.43V950.47Zm718.71,2a47.47,47.47,0,0,1-2.48-94.88c.83,0,1.66-.06,2.48-.06a47.47,47.47,0,0,1,2.47,94.87c-.83,0-1.66.07-2.47.07Zm230,2.43a47.47,47.47,0,0,1-2.47-94.87c.82,0,1.65-.06,2.47-.06a47.47,47.47,0,0,1,2.47,94.87c-.83,0-1.65.06-2.47.06Zm-112,114.41a47.47,47.47,0,0,1-2.47-94.87c.83,0,1.66-.07,2.47-.07a47.47,47.47,0,0,1,2.47,94.88c-.82,0-1.65.06-2.47.06Z" transform="translate(0 0)"/></svg>