<svg id="Layer_1" data-name="Layer 1" xmlns="http://www.w3.org/2000/svg" viewBox="0 0 2048 2048"><defs><style>.cls-1{fill:#ccc;}.cls-2,.cls-4{fill:#fff;}.cls-3{fill:#c5c5c5;}.cls-4{stroke:#000;stroke-miterlimit:10;stroke-width:20px;}.cls-5{font-size:600px;font-family:NotoSerifCJKkr-Medium-KSCpc-EUC-H, Noto Serif CJK KR;}</style></defs><rect class="cls-1" x="10" y="10" width="2028" height="2028" rx="166.67"/><path d="M1871.29,19.71A156.66,156.66,0,0,1,2028,176.38V1871.05a156.64,156.64,0,0,1-156.66,156.66H176.62A156.66,156.66,0,0,1,20,1871.05V176.38A156.68,156.68,0,0,1,176.62,19.71H1871.29m0-20H176.62A176.67,176.67,0,0,0,0,176.38V1871.05a176.66,176.66,0,0,0,176.67,176.66H1871.29A176.66,176.66,0,0,0,2048,1871.05V176.38A176.66,176.66,0,0,0,1871.29-.29Z" transform="translate(0.05 0.29)"/><path class="cls-2" d="M655.32,1996A147.77,147.77,0,0,1,508,1848.68V216.32A147.77,147.77,0,0,1,655.32,69h732.36A147.77,147.77,0,0,1,1535,216.32V1848.68A147.77,147.77,0,0,1,1387.68,1996Z" transform="translate(0.05 0.29)"/><path d="M1387.68,79A137.77,137.77,0,0,1,1525,216.32V1848.68A137.77,137.77,0,0,1,1387.68,1986H655.32A137.77,137.77,0,0,1,518,1848.68V216.32A137.77,137.77,0,0,1,655.32,79h732.36m0-20H655.32C568.79,59,498,129.79,498,216.32V1848.68c0,86.53,70.79,157.32,157.32,157.32h732.36c86.53,0,157.32-70.79,157.32-157.32V216.32C1545,129.79,1474.21,59,1387.68,59Z" transform="translate(0.05 0.29)"/><rect class="cls-3" x="550.05" y="303.29" width="947" height="1442" rx="37.29"/><path d="M1459.71,313A27.32,27.32,0,0,1,1487,340.29V1707.71a27.32,27.32,0,0,1-27.29,27.29H587.29A27.32,27.32,0,0,1,560,1707.71V340.29A27.32,27.32,0,0,1,587.29,313h872.42m0-20H587.29A47.29,47.29,0,0,0,540,340.29V1707.71A47.29,47.29,0,0,0,587.29,1755h872.42a47.29,47.29,0,0,0,47.29-47.29V340.29A47.29,47.29,0,0,0,1459.71,293Z" transform="translate(0.05 0.29)"/><line class="cls-4" x1="926.05" y1="194.29" x2="1116.05" y2="194.29"/><path d="M1029.5,1803a66.5,66.5,0,1,1-66.5,66.5,66.57,66.57,0,0,1,66.5-66.5m0-20a86.5,86.5,0,1,0,86.5,86.5,86.5,86.5,0,0,0-86.5-86.5Z" transform="translate(0.05 0.29)"/><text class="cls-5" transform="translate(716.86 1272.29)">앱</text></svg>