<svg id="Layer_1" data-name="Layer 1" xmlns="http://www.w3.org/2000/svg" viewBox="0 0 2048 2048"><defs><style>.cls-1{fill:#c5c5c5;}.cls-2{stroke:#000;stroke-miterlimit:10;stroke-width:20px;}.cls-3{fill:#c1272d;}.cls-4{fill:#fcee21;}.cls-5{fill:lime;}.cls-6{font-size:800px;font-family:NotoSerifCJKkr-Bold-KSCpc-EUC-H, Noto Serif CJK KR;}</style></defs><rect class="cls-1" x="12" y="10" width="2028" height="2028" rx="166.67"/><path d="M1873.33,20A156.68,156.68,0,0,1,2030,176.67V1871.33A156.68,156.68,0,0,1,1873.33,2028H178.67A156.68,156.68,0,0,1,22,1871.33V176.67A156.68,156.68,0,0,1,178.67,20H1873.33m0-20H178.67A176.67,176.67,0,0,0,2,176.67V1871.33A176.67,176.67,0,0,0,178.67,2048H1873.33A176.67,176.67,0,0,0,2050,1871.33V176.67A176.67,176.67,0,0,0,1873.33,0Z"/><text/><line class="cls-2" x1="13" y1="219" x2="2035" y2="219"/><circle class="cls-3" cx="180.5" cy="118.5" r="58.5"/><path d="M180.5,70A48.5,48.5,0,1,1,132,118.5,48.56,48.56,0,0,1,180.5,70m0-20A68.5,68.5,0,1,0,249,118.5,68.5,68.5,0,0,0,180.5,50Z"/><circle class="cls-4" cx="334.5" cy="118.5" r="58.5"/><path d="M334.5,70A48.5,48.5,0,1,1,286,118.5,48.56,48.56,0,0,1,334.5,70m0-20A68.5,68.5,0,1,0,403,118.5,68.5,68.5,0,0,0,334.5,50Z"/><circle class="cls-5" cx="483.5" cy="118.5" r="58.5"/><path d="M483.5,70A48.5,48.5,0,1,1,435,118.5,48.56,48.56,0,0,1,483.5,70m0-20A68.5,68.5,0,1,0,552,118.5,68.5,68.5,0,0,0,483.5,50Z"/><text class="cls-6" transform="translate(577.33 1338.45)">웹</text></svg>